<svg width="15px" height="15px" viewBox="0 0 20 20" xmlns="http://www.w3.org/2000/svg"><g id="Page-1" stroke="none" stroke-width="1" fill="none" fill-rule="evenodd"><g id="Artboard" fill-rule="nonzero" fill="#666666"><g id="link" transform="translate(2.000000, 1.500000)"><path d="M15.7618868,11.15625 L13.7603773,9.11625 C12.6762264,8.01125 11.0083019,7.84125 9.75735848,8.60625 L8.25622641,7.07625 C8.58981131,6.56625 8.75660376,5.97125 8.75660376,5.37625 C8.75660376,4.44125 8.42301886,3.59125 7.75584907,2.99625 L5.75433962,0.95625 C4.50339624,-0.31875 2.33509434,-0.31875 1.00075472,0.95625 C-0.333584905,2.31625 -0.333584905,4.44125 1.00075472,5.80125 L3.00226415,7.84125 C3.66943396,8.52125 4.50339624,8.86125 5.33735848,8.86125 C5.92113207,8.86125 6.50490565,8.69125 7.00528304,8.35125 L8.42301886,9.79625 C7.67245283,11.07125 7.83924528,12.77125 8.92339624,13.87625 L10.9249057,15.91625 C11.5920755,16.59625 12.4260377,16.93625 13.26,16.93625 C14.1773585,16.93625 15.0113208,16.59625 15.5950943,15.91625 C17.0962264,14.55625 17.0962264,12.43125 15.7618868,11.15625 Z M4.25320755,6.56625 L2.25169811,4.52625 C1.5845283,3.84625 1.5845283,2.82625 2.25169811,2.14625 C2.58528302,1.80625 3.00226415,1.63625 3.41924528,1.63625 C3.83622641,1.63625 4.25320755,1.80625 4.58679245,2.14625 L6.5883019,4.18625 C6.92188679,4.52625 7.08867924,4.95125 7.08867924,5.37625 C7.08867924,5.54625 7.08867924,5.63125 7.00528304,5.80125 L6.25471696,5.03625 L5.08716983,6.22625 L5.83773586,6.99125 C5.25396228,7.16125 4.67018869,6.99125 4.25320755,6.56625 Z M14.5943396,14.72625 C13.9271698,15.40625 12.8430189,15.40625 12.2592453,14.72625 L10.2577359,12.68625 C9.84075473,12.26125 9.67396228,11.58125 9.84075473,11.07125 L10.5913208,11.83625 L11.7588679,10.64625 L11.0083019,9.88125 C11.1750943,9.88125 11.2584906,9.79625 11.425283,9.79625 C11.8422641,9.79625 12.2592453,9.96625 12.5928302,10.30625 L14.5943396,12.34625 C15.2615095,12.94125 15.2615095,14.04625 14.5943396,14.72625 Z" id="Page-1" transform="translate(8.371356, 8.468125) scale(-1, 1) rotate(-180.000000) translate(-8.371356, -8.468125) "></path></g></g></g></svg>