<svg width="24px" height="24px" style="margin-right: 3px" viewBox="0 0 24 24" xmlns="http://www.w3.org/2000/svg"><g class="icon_svg-fill_as_stroke twitter" stroke="none" fill="#1DA1F2" fill-rule="nonzero"><path d="M8.84616,19.3134989 C15.26128,19.3134989 18.77008,13.9986189 18.77008,9.38957894 C18.77008,9.23861894 18.77008,9.08833894 18.75988,8.93873894 C19.4424853,8.44499832 20.0317217,7.83365693 20.5,7.13333894 C19.8634378,7.41540415 19.1881639,7.60038242 18.49672,7.68209894 C19.2248259,7.24620674 19.769764,6.56062389 20.03012,5.75293894 C19.3454671,6.15920856 18.5964393,6.44552712 17.81536,6.59953894 C16.7342163,5.44992705 15.0162892,5.1685555 13.6248935,5.91320129 C12.2334978,6.65784709 11.514667,8.24332044 11.87148,9.78057894 C9.0670891,9.63998863 6.45424353,8.31539877 4.6832,6.13645894 C3.75746347,7.73013736 4.23031176,9.76892339 5.76304,10.7924189 C5.20798402,10.7759681 4.66502997,10.6262359 4.18,10.3558589 C4.18,10.3701389 4.18,10.3850989 4.18,10.4000589 C4.18045433,12.0603422 5.35079101,13.4903429 6.9782,13.8190989 C6.46471132,13.9591382 5.9259548,13.9796091 5.40332,13.8789389 C5.86024459,15.2997465 7.1696707,16.273072 8.66188,16.3010989 C7.42681983,17.2717527 5.90112047,17.7986818 4.33028,17.7970989 C4.05277443,17.7965662 3.77553876,17.779764 3.5,17.7467789 C5.09503245,18.770367 6.95094111,19.3133064 8.84616,19.3107789"></path></g></svg>