<svg width="24px" height="24px" viewBox="0 0 24 24" xmlns="http://www.w3.org/2000/svg"><g stroke="none" class="icon_svg-fill_as_stroke" fill="#666" fill-rule="nonzero"><path d="M20.5823249,1.46895336 C21.5333669,1.72378429 22.2762157,2.46663308 22.5310466,3.4176751 C22.7688888,4.30531422 22.5478884,5.24844981 21.9512594,5.93636135 L21.8176912,6.07975124 L7.59377722,20.2989342 C7.55524547,20.3374532 7.51192683,20.3706849 7.46497155,20.3978597 L7.39195494,20.4339831 L6.15422585,20.9479854 L6.16025274,20.9542216 L6.06022585,20.9869854 L2.24004594,22.5770637 C1.9925838,22.6800025 1.74479317,22.6142247 1.57791008,22.4609663 L1.51968596,22.480314 L1.53903322,22.4220895 C1.40493218,22.2760668 1.33780845,22.0680992 1.39208381,21.8526086 L1.42293595,21.7599536 L3.01522585,17.9289854 L3.04577839,17.8397473 L3.05122585,17.8449854 L3.56601695,16.608045 C3.58694245,16.5577407 3.61430969,16.5104978 3.64734899,16.4674668 L3.70106576,16.4062228 L17.9203223,2.18223527 C18.6165334,1.4860241 19.631283,1.21412245 20.5823249,1.46895336 Z M21.5,9.875 C21.8137982,9.875 22.0735831,10.1062579 22.1182234,10.4076421 L22.125,10.5 L22.125,21.5 C22.125,21.8137982 21.8937421,22.0735831 21.5923579,22.1182234 L21.5,22.125 L10.5,22.125 C10.154822,22.125 9.875,21.845178 9.875,21.5 C9.875,21.1862018 10.1062579,20.9264169 10.4076421,20.8817766 L10.5,20.875 L20.875,20.875 L20.875,10.5 C20.875,10.1862018 21.1062579,9.92641686 21.4076421,9.8817766 L21.5,9.875 Z M18.9234012,2.95894773 L18.8042792,3.06604522 L4.673,17.201 L4.00722585,18.8009854 L5.19722585,19.9909854 L6.798,19.326 L20.9338813,5.19579425 C21.2382254,4.89145019 21.3941821,4.47570869 21.3730966,4.05551138 L21.3568348,3.8979374 L21.3236394,3.7411989 C21.1843923,3.22152196 20.778478,2.81560765 20.2588011,2.67636064 C19.7910921,2.55103839 19.2951854,2.65885186 18.9234012,2.95894773 Z M13.5,1.875 C13.845178,1.875 14.125,2.15482203 14.125,2.5 C14.125,2.81379815 13.8937421,3.07358314 13.5923579,3.1182234 L13.5,3.125 L3.124,3.125 L3.125,13.5 C3.125,13.8137982 2.89374212,14.0735831 2.59235792,14.1182234 L2.5,14.125 C2.18620185,14.125 1.92641686,13.8937421 1.8817766,13.5923579 L1.875,13.5 L1.875,2.5 C1.875,2.18620185 2.10625788,1.92641686 2.40764208,1.8817766 L2.5,1.875 L13.5,1.875 Z"></path></g></svg>