<svg width="24px" height="24px" viewBox="0 0 24 24" xmlns="http://www.w3.org/2000/svg"><g stroke="none" class="icon_svg-fill_as_stroke" fill="#666" fill-rule="nonzero"><path d="M14.5,17.5 C14.5,16.1192881 13.3807119,15 12,15 C10.6192881,15 9.5,16.1192881 9.5,17.5 L9.5,22.5 C9.5,22.8137982 9.26874212,23.0735831 8.96735792,23.1182234 L8.875,23.125 L4.5,23.125 C4.18620185,23.125 3.92641686,22.8937421 3.8817766,22.5923579 L3.875,22.5 L3.87474703,13.125 L0.75,13.125 C0.225938323,13.125 -0.051901591,12.5286585 0.245478344,12.130247 L0.308058262,12.0580583 L11.5580583,0.808058262 C11.7750162,0.591100322 12.1117967,0.566993884 12.3553819,0.735738948 L12.4419417,0.808058262 L23.6919417,12.0580583 C24.0625093,12.4286258 23.8372946,13.0467655 23.3452958,13.1182055 L23.25,13.125 L20.124747,13.125 L20.125,22.5 C20.125,22.8137982 19.8937421,23.0735831 19.5923579,23.1182234 L19.5,23.125 L15.125,23.125 C14.779822,23.125 14.5,22.845178 14.5,22.5 L14.5,17.5 Z"></path></g></svg>