<svg width="24px" height="24px" viewBox="0 0 24 24" xmlns="http://www.w3.org/2000/svg"><g stroke="none" class="icon_svg-fill_as_stroke" fill="#666" fill-rule="nonzero"><path d="M7.52623147,20.785 L2.79,20.785 C2.44482203,20.785 2.165,20.505178 2.165,20.16 L2.165,17.29 C2.165,17.0074029 2.35462776,16.759965 2.62750674,16.6864928 C3.53489668,16.4421796 4.29934428,15.8306216 4.7207945,15.0318719 C4.9275141,14.5760287 5.06975441,13.9060632 5.14652602,13.0874967 C5.22522536,12.2483761 5.22985909,11.3460973 5.1901543,10.5099262 C5.18132015,10.3238819 5.17258627,10.1897885 5.16500014,10.0695864 C5.16692674,7.15836438 6.9889796,4.66737849 9.56682756,3.68343601 C9.26674573,2.76136733 9.51351889,1.71491397 10.2655534,1.02510085 C11.2368263,0.134188561 12.7281737,0.134188561 13.6994466,1.02510085 C14.4567778,1.71977241 14.7017053,2.77612562 14.3917505,3.70290007 C16.9386536,4.70128291 18.7376316,7.18746315 18.7381538,10.1180033 C18.7329004,10.1862007 18.7247029,10.3170436 18.7164115,10.4987995 C18.678225,11.3358848 18.6837149,12.2411691 18.7623359,13.0834986 C18.8380419,13.8945969 18.9766156,14.5599136 19.17701,15.0156444 C19.6139373,15.8286861 20.3650186,16.4276075 21.2556099,16.6723406 C21.5269485,16.746904 21.715,16.9936028 21.715,17.275 L21.715,20.16 C21.715,20.505178 21.435178,20.785 21.09,20.785 L16.4737685,20.785 C15.6735053,22.5149427 13.9340364,23.6434187 12,23.6434187 C10.0659636,23.6434187 8.3264947,22.5149427 7.52623147,20.785 Z M8.95818095,20.785 C9.63220587,21.774741 10.7627679,22.3934187 12,22.3934187 C13.2372321,22.3934187 14.3677941,21.774741 15.041819,20.785 L8.95818095,20.785 Z M10.7730327,3.3462836 C11.1317244,3.28076521 11.5003399,3.24303757 11.8765942,3.23543396 C11.8774166,3.23540611 11.8782389,3.23537841 11.8790613,3.23535084 L11.9,3.235 L12.0100562,3.23508091 C12.4123669,3.24155487 12.8061097,3.28266789 13.1884584,3.35561277 C13.3719335,2.87349632 13.2526354,2.31147152 12.8544926,1.94627004 C12.3612083,1.49379883 11.6037917,1.49379883 11.1105074,1.94627004 C10.71493,2.30911841 10.5946154,2.86626188 10.7730327,3.3462836 Z"></path></g></svg>